<svg width="1200" height="630" viewBox="0 0 1200 630" xmlns="http://www.w3.org/2000/svg"><mask id="satori_om-id"><rect x="0" y="0" width="1200" height="630" fill="#fff"/></mask><rect x="0" y="0" width="1200" height="630" fill="#111827"/><clipPath id="satori_cp-id-0"><rect x="563" y="232" width="75" height="65"/></clipPath><mask id="satori_om-id-0"><rect x="563" y="232" width="75" height="65" fill="#fff"/></mask><image x="563" y="232" width="75" height="65" href="data:image/svg+xml;utf8,%3Csvg  fill=%22%23fff%22 xmlns=%22http://www.w3.org/2000/svg%22 width=%22NaN%22 height=%22null%22 viewBox=%220 0 75 65%22%3E%3Cpath d=%22M37.59.25l36.95 64H.64l36.95-64z%22%3E%3C/path%3E%3C/svg%3E" preserveAspectRatio="none" clip-path="url(#satori_cp-id-0)" mask="url(#satori_om-id-0)"/><mask id="satori_om-id-0-0"><rect x="563" y="232" width="0" height="65" fill="#fff"/></mask><mask id="satori_om-id-1"><rect x="240" y="337" width="720" height="61" fill="#fff"/></mask><path fill="#fff" d="M265.9 347.4L273.6 347.4L273.6 383.8L266.9 383.8L251.1 360.9L250.8 360.9L250.8 383.8L243.2 383.8L243.2 347.4L249.9 347.4L265.6 370.3L265.9 370.3L265.9 347.4ZM287.3 383.8L279.8 383.8L279.8 356.5L287.3 356.5L287.3 383.8ZM283.6 353.0L283.6 353.0Q281.9 353.0 280.7 351.9Q279.5 350.8 279.5 349.2L279.5 349.2Q279.5 347.6 280.7 346.5Q281.9 345.4 283.6 345.4L283.6 345.4Q285.3 345.4 286.5 346.5Q287.7 347.6 287.7 349.2L287.7 349.2Q287.7 350.8 286.5 351.9Q285.3 353.0 283.6 353.0ZM305.7 384.3L305.7 384.3Q301.5 384.3 298.5 382.5Q295.5 380.8 293.9 377.6Q292.3 374.4 292.3 370.3L292.3 370.3Q292.3 366.1 293.9 362.9Q295.5 359.7 298.5 358.0Q301.5 356.2 305.7 356.2L305.7 356.2Q309.2 356.2 311.9 357.5Q314.6 358.8 316.2 361.1Q317.7 363.5 317.9 366.6L317.9 366.6L310.7 366.6Q310.4 364.6 309.1 363.3Q307.9 362.1 305.8 362.1L305.8 362.1Q304.0 362.1 302.7 363.0Q301.4 364.0 300.7 365.8Q300.0 367.6 300.0 370.2L300.0 370.2Q300.0 372.8 300.7 374.6Q301.4 376.4 302.7 377.4Q304.0 378.3 305.8 378.3L305.8 378.3Q307.1 378.3 308.1 377.8Q309.2 377.3 309.8 376.3Q310.5 375.2 310.7 373.8L310.7 373.8L317.9 373.8Q317.7 376.9 316.2 379.3Q314.7 381.7 312.0 383.0Q309.3 384.3 305.7 384.3ZM334.6 370.2L329.6 376.0L329.6 366.9L330.7 366.9L339.4 356.5L348.1 356.5L336.4 370.2L334.6 370.2ZM330.3 383.8L322.7 383.8L322.7 347.4L330.3 347.4L330.3 383.8ZM348.6 383.8L339.8 383.8L331.8 371.9L336.8 366.6L348.6 383.8Z M386.8 383.8L363.6 383.8L363.6 347.4L371.3 347.4L371.3 377.5L386.8 377.5L386.8 383.8ZM399.6 384.3L399.6 384.3Q397.0 384.3 394.9 383.4Q392.9 382.5 391.7 380.7Q390.5 378.9 390.5 376.2L390.5 376.2Q390.5 373.9 391.3 372.4Q392.2 370.8 393.6 369.9Q395.1 368.9 396.9 368.5Q398.7 368.0 400.8 367.8L400.8 367.8Q403.1 367.5 404.6 367.3Q406.1 367.1 406.7 366.6Q407.4 366.2 407.4 365.3L407.4 365.3L407.4 365.2Q407.4 363.5 406.3 362.6Q405.3 361.7 403.3 361.7L403.3 361.7Q401.3 361.7 400.1 362.6Q398.9 363.5 398.5 364.8L398.5 364.8L391.5 364.3Q392.0 361.8 393.6 360.0Q395.1 358.1 397.6 357.2Q400.1 356.2 403.4 356.2L403.4 356.2Q405.6 356.2 407.7 356.7Q409.8 357.2 411.4 358.4Q413.0 359.5 414.0 361.2Q414.9 363.0 414.9 365.4L414.9 365.4L414.9 383.8L407.8 383.8L407.8 380.0L407.5 380.0Q406.9 381.3 405.8 382.3Q404.7 383.2 403.1 383.8Q401.6 384.3 399.6 384.3ZM401.7 379.1L401.7 379.1Q403.4 379.1 404.7 378.4Q406.0 377.8 406.7 376.6Q407.4 375.5 407.4 374.1L407.4 374.1L407.4 371.2Q407.1 371.4 406.5 371.6Q405.8 371.8 405.1 371.9Q404.3 372.1 403.5 372.2Q402.8 372.3 402.2 372.4L402.2 372.4Q400.8 372.6 399.8 373.0Q398.8 373.4 398.3 374.2Q397.7 374.9 397.7 375.9L397.7 375.9Q397.7 377.5 398.9 378.3Q400.0 379.1 401.7 379.1ZM420.8 347.4L428.4 347.4L428.4 383.8L420.8 383.8L420.8 347.4Z M448.7 335.7L455.9 335.7L455.9 395.5L448.7 395.5L448.7 335.7Z M503.5 357.9L496.1 357.9Q495.9 355.7 494.3 354.6Q492.7 353.4 489.9 353.4L489.9 353.4Q488.0 353.4 486.8 353.9Q485.5 354.4 484.8 355.3Q484.1 356.3 484.1 357.4L484.1 357.4Q484.1 358.4 484.5 359.1Q485.0 359.9 485.8 360.4Q486.6 360.9 487.6 361.3Q488.7 361.7 489.8 361.9L489.8 361.9L493.1 362.7Q495.5 363.3 497.5 364.1Q499.5 365.0 500.9 366.3Q502.4 367.6 503.2 369.4Q504.0 371.1 504.0 373.4L504.0 373.4Q504.0 376.8 502.3 379.2Q500.6 381.6 497.5 383.0Q494.3 384.3 489.9 384.3L489.9 384.3Q485.5 384.3 482.2 383.0Q479.0 381.6 477.2 379.0Q475.3 376.3 475.2 372.4L475.2 372.4L482.7 372.4Q482.8 374.2 483.7 375.4Q484.7 376.6 486.2 377.3Q487.8 377.9 489.8 377.9L489.8 377.9Q491.8 377.9 493.2 377.3Q494.7 376.7 495.5 375.7Q496.3 374.7 496.3 373.4L496.3 373.4Q496.3 372.2 495.5 371.3Q494.8 370.5 493.4 369.9Q492.1 369.3 490.1 368.9L490.1 368.9L486.1 367.9Q481.5 366.7 478.8 364.4Q476.2 362.0 476.2 357.9L476.2 357.9Q476.2 354.6 478.0 352.2Q479.8 349.7 482.9 348.3Q486.0 346.9 490.0 346.9L490.0 346.9Q494.0 346.9 497.1 348.3Q500.1 349.7 501.8 352.2Q503.5 354.6 503.5 357.9L503.5 357.9ZM521.3 384.3L521.3 384.3Q517.2 384.3 514.2 382.6Q511.2 380.8 509.5 377.6Q507.9 374.5 507.9 370.3L507.9 370.3Q507.9 366.0 509.5 362.9Q511.2 359.7 514.2 357.9Q517.2 356.2 521.3 356.2L521.3 356.2Q525.5 356.2 528.5 357.9Q531.5 359.7 533.1 362.9Q534.8 366.0 534.8 370.3L534.8 370.3Q534.8 374.5 533.1 377.6Q531.5 380.8 528.5 382.6Q525.5 384.3 521.3 384.3ZM521.4 378.5L521.4 378.5Q523.3 378.5 524.5 377.4Q525.8 376.3 526.4 374.5Q527.1 372.6 527.1 370.2L527.1 370.2Q527.1 367.8 526.4 366.0Q525.8 364.1 524.5 363.0Q523.3 361.9 521.4 361.9L521.4 361.9Q519.5 361.9 518.2 363.0Q516.9 364.1 516.3 366.0Q515.6 367.8 515.6 370.2L515.6 370.2Q515.6 372.6 516.3 374.5Q516.9 376.3 518.2 377.4Q519.5 378.5 521.4 378.5ZM537.5 356.5L554.4 356.5L554.4 362.2L537.5 362.2L537.5 356.5ZM548.9 383.8L541.4 383.8L541.4 354.6Q541.4 351.6 542.5 349.6Q543.7 347.7 545.7 346.7Q547.8 345.7 550.3 345.7L550.3 345.7Q552.1 345.7 553.5 346.0Q555.0 346.3 555.7 346.5L555.7 346.5L554.3 352.2Q553.9 352.0 553.2 351.9Q552.6 351.8 551.9 351.8L551.9 351.8Q550.2 351.8 549.6 352.5Q548.9 353.3 548.9 354.7L548.9 354.7L548.9 383.8ZM557.1 356.5L573.5 356.5L573.5 362.2L557.1 362.2L557.1 356.5ZM560.8 376.4L560.8 350.0L568.4 350.0L568.4 375.4Q568.4 376.5 568.7 377.0Q569.0 377.6 569.6 377.9Q570.1 378.1 570.9 378.1L570.9 378.1Q571.4 378.1 572.0 378.0Q572.5 377.9 572.8 377.8L572.8 377.8L574.0 383.5Q573.4 383.6 572.4 383.9Q571.4 384.1 569.9 384.2L569.9 384.2Q567.1 384.3 565.1 383.4Q563.0 382.6 561.9 380.9Q560.8 379.1 560.8 376.4L560.8 376.4ZM591.8 383.8L583.8 383.8L576.4 356.5L584.0 356.5L588.2 374.9L588.5 374.9L592.9 356.5L600.4 356.5L604.9 374.7L605.1 374.7L609.3 356.5L616.9 356.5L609.5 383.8L601.5 383.8L596.8 366.6L596.5 366.6L591.8 383.8ZM628.7 384.3L628.7 384.3Q626.1 384.3 624.0 383.4Q622.0 382.5 620.8 380.7Q619.6 378.9 619.6 376.2L619.6 376.2Q619.6 373.9 620.5 372.4Q621.3 370.8 622.7 369.9Q624.2 368.9 626.0 368.5Q627.9 368.0 629.9 367.8L629.9 367.8Q632.3 367.5 633.7 367.3Q635.2 367.1 635.8 366.6Q636.5 366.2 636.5 365.3L636.5 365.3L636.5 365.2Q636.5 363.5 635.4 362.6Q634.4 361.7 632.4 361.7L632.4 361.7Q630.4 361.7 629.2 362.6Q628.0 363.5 627.6 364.8L627.6 364.8L620.6 364.3Q621.1 361.8 622.7 360.0Q624.3 358.1 626.7 357.2Q629.2 356.2 632.5 356.2L632.5 356.2Q634.7 356.2 636.8 356.7Q638.9 357.2 640.5 358.4Q642.2 359.5 643.1 361.2Q644.0 363.0 644.0 365.4L644.0 365.4L644.0 383.8L636.9 383.8L636.9 380.0L636.7 380.0Q636.0 381.3 634.9 382.3Q633.8 383.2 632.3 383.8Q630.7 384.3 628.7 384.3ZM630.9 379.1L630.9 379.1Q632.5 379.1 633.8 378.4Q635.1 377.8 635.8 376.6Q636.5 375.5 636.5 374.1L636.5 374.1L636.5 371.2Q636.2 371.4 635.6 371.6Q635.0 371.8 634.2 371.9Q633.4 372.1 632.7 372.2Q631.9 372.3 631.3 372.4L631.3 372.4Q630.0 372.6 629.0 373.0Q628.0 373.4 627.4 374.2Q626.9 374.9 626.9 375.9L626.9 375.9Q626.9 377.5 628.0 378.3Q629.1 379.1 630.9 379.1ZM657.5 383.8L649.9 383.8L649.9 356.5L657.3 356.5L657.3 361.3L657.5 361.3Q658.3 358.7 660.0 357.4Q661.8 356.1 664.1 356.1L664.1 356.1Q664.7 356.1 665.3 356.2Q666.0 356.3 666.5 356.4L666.5 356.4L666.5 363.1Q665.9 363.0 665 362.8Q664.1 362.7 663.3 362.7L663.3 362.7Q661.6 362.7 660.3 363.4Q659.0 364.1 658.2 365.4Q657.5 366.7 657.5 368.4L657.5 368.4L657.5 383.8ZM681.5 384.3L681.5 384.3Q677.3 384.3 674.3 382.6Q671.3 380.9 669.6 377.8Q668.0 374.6 668.0 370.3L668.0 370.3Q668.0 366.1 669.6 362.9Q671.3 359.7 674.2 357.9Q677.2 356.2 681.2 356.2L681.2 356.2Q683.9 356.2 686.2 357.0Q688.6 357.9 690.3 359.6Q692.1 361.3 693.1 363.9Q694.0 366.5 694.0 370.0L694.0 370.0L694.0 372.1L671.0 372.1L671.0 367.4L686.9 367.4Q686.9 365.8 686.2 364.5Q685.5 363.3 684.2 362.5Q683.0 361.8 681.3 361.8L681.3 361.8Q679.6 361.8 678.3 362.6Q677.0 363.4 676.2 364.7Q675.5 366.0 675.5 367.7L675.5 367.7L675.5 372.1Q675.5 374.1 676.2 375.6Q677.0 377.1 678.4 377.9Q679.7 378.7 681.6 378.7L681.6 378.7Q682.9 378.7 683.9 378.3Q685.0 378.0 685.7 377.3Q686.5 376.6 686.9 375.5L686.9 375.5L693.9 376.0Q693.3 378.5 691.7 380.4Q690.1 382.3 687.5 383.3Q684.9 384.3 681.5 384.3Z M724.9 383.8L724.9 383.8L712.0 383.8L712.0 347.4L725.0 347.4Q730.5 347.4 734.4 349.6Q738.4 351.8 740.5 355.9Q742.7 359.9 742.7 365.6L742.7 365.6Q742.7 371.3 740.5 375.3Q738.4 379.4 734.4 381.6Q730.4 383.8 724.9 383.8ZM719.7 354.0L719.7 377.2L724.6 377.2Q728.0 377.2 730.3 376.0Q732.6 374.8 733.8 372.2Q735.0 369.6 735.0 365.6L735.0 365.6Q735.0 361.6 733.8 359.0Q732.6 356.4 730.3 355.2Q728.0 354.0 724.6 354.0L724.6 354.0L719.7 354.0ZM760.6 384.3L760.6 384.3Q756.4 384.3 753.4 382.6Q750.4 380.9 748.7 377.8Q747.1 374.6 747.1 370.3L747.1 370.3Q747.1 366.1 748.7 362.9Q750.4 359.7 753.3 357.9Q756.3 356.2 760.3 356.2L760.3 356.2Q763.0 356.2 765.4 357.0Q767.7 357.9 769.4 359.6Q771.2 361.3 772.2 363.9Q773.1 366.5 773.1 370.0L773.1 370.0L773.1 372.1L750.1 372.1L750.1 367.4L766.0 367.4Q766.0 365.8 765.3 364.5Q764.6 363.3 763.4 362.5Q762.1 361.8 760.5 361.8L760.5 361.8Q758.7 361.8 757.4 362.6Q756.1 363.4 755.3 364.7Q754.6 366.0 754.6 367.7L754.6 367.7L754.6 372.1Q754.6 374.1 755.3 375.6Q756.1 377.1 757.5 377.9Q758.9 378.7 760.8 378.7L760.8 378.7Q762.0 378.7 763.1 378.3Q764.1 378.0 764.9 377.3Q765.6 376.6 766.0 375.5L766.0 375.5L773.0 376.0Q772.5 378.5 770.8 380.4Q769.2 382.3 766.6 383.3Q764.0 384.3 760.6 384.3ZM794.7 356.5L802.7 356.5L793.2 383.8L784.7 383.8L775.2 356.5L783.1 356.5L788.8 376.0L789.1 376.0L794.7 356.5ZM818.1 384.3L818.1 384.3Q813.9 384.3 810.9 382.6Q807.9 380.9 806.2 377.8Q804.6 374.6 804.6 370.3L804.6 370.3Q804.6 366.1 806.2 362.9Q807.9 359.7 810.9 357.9Q813.8 356.2 817.8 356.2L817.8 356.2Q820.5 356.2 822.9 357.0Q825.2 357.9 827.0 359.6Q828.7 361.3 829.7 363.9Q830.7 366.5 830.7 370.0L830.7 370.0L830.7 372.1L807.6 372.1L807.6 367.4L823.5 367.4Q823.5 365.8 822.8 364.5Q822.1 363.3 820.9 362.5Q819.6 361.8 818.0 361.8L818.0 361.8Q816.2 361.8 814.9 362.6Q813.6 363.4 812.9 364.7Q812.1 366.0 812.1 367.7L812.1 367.7L812.1 372.1Q812.1 374.1 812.8 375.6Q813.6 377.1 815.0 377.9Q816.4 378.7 818.3 378.7L818.3 378.7Q819.5 378.7 820.6 378.3Q821.6 378.0 822.4 377.3Q823.1 376.6 823.5 375.5L823.5 375.5L830.5 376.0Q830.0 378.5 828.3 380.4Q826.7 382.3 824.1 383.3Q821.5 384.3 818.1 384.3ZM835.6 347.4L843.2 347.4L843.2 383.8L835.6 383.8L835.6 347.4ZM861.5 384.3L861.5 384.3Q857.4 384.3 854.4 382.6Q851.4 380.8 849.7 377.6Q848.1 374.5 848.1 370.3L848.1 370.3Q848.1 366.0 849.7 362.9Q851.4 359.7 854.4 357.9Q857.4 356.2 861.5 356.2L861.5 356.2Q865.7 356.2 868.7 357.9Q871.7 359.7 873.3 362.9Q874.9 366.0 874.9 370.3L874.9 370.3Q874.9 374.5 873.3 377.6Q871.7 380.8 868.7 382.6Q865.7 384.3 861.5 384.3ZM861.6 378.5L861.6 378.5Q863.4 378.5 864.7 377.4Q866.0 376.3 866.6 374.5Q867.3 372.6 867.3 370.2L867.3 370.2Q867.3 367.8 866.6 366.0Q866.0 364.1 864.7 363.0Q863.4 361.9 861.6 361.9L861.6 361.9Q859.7 361.9 858.4 363.0Q857.1 364.1 856.4 366.0Q855.8 367.8 855.8 370.2L855.8 370.2Q855.8 372.6 856.4 374.5Q857.1 376.3 858.4 377.4Q859.7 378.5 861.6 378.5ZM887.4 394.0L879.9 394.0L879.9 356.5L887.3 356.5L887.3 361.1L887.7 361.1Q888.2 360.0 889.1 358.9Q890.1 357.7 891.6 356.9Q893.1 356.2 895.4 356.2L895.4 356.2Q898.4 356.2 900.9 357.7Q903.5 359.3 905.0 362.4Q906.5 365.5 906.5 370.2L906.5 370.2Q906.5 374.8 905.0 377.9Q903.5 381.0 901.0 382.6Q898.5 384.2 895.4 384.2L895.4 384.2Q893.2 384.2 891.7 383.5Q890.1 382.8 889.2 381.7Q888.2 380.6 887.7 379.4L887.7 379.4L887.4 379.4L887.4 394.0ZM887.3 370.2L887.3 370.2Q887.3 372.6 888.0 374.4Q888.6 376.2 889.9 377.2Q891.2 378.2 893.0 378.2L893.0 378.2Q894.9 378.2 896.1 377.2Q897.4 376.2 898.1 374.4Q898.8 372.5 898.8 370.2L898.8 370.2Q898.8 367.8 898.1 366.0Q897.4 364.2 896.2 363.2Q894.9 362.2 893.0 362.2L893.0 362.2Q891.2 362.2 889.9 363.2Q888.6 364.1 888.0 365.9Q887.3 367.7 887.3 370.2ZM923.9 384.3L923.9 384.3Q919.7 384.3 916.7 382.6Q913.7 380.9 912.0 377.8Q910.4 374.6 910.4 370.3L910.4 370.3Q910.4 366.1 912.0 362.9Q913.7 359.7 916.6 357.9Q919.6 356.2 923.6 356.2L923.6 356.2Q926.3 356.2 928.7 357.0Q931.0 357.9 932.7 359.6Q934.5 361.3 935.5 363.9Q936.4 366.5 936.4 370.0L936.4 370.0L936.4 372.1L913.4 372.1L913.4 367.4L929.3 367.4Q929.3 365.8 928.6 364.5Q927.9 363.3 926.7 362.5Q925.4 361.8 923.8 361.8L923.8 361.8Q922.0 361.8 920.7 362.6Q919.4 363.4 918.6 364.7Q917.9 366.0 917.9 367.7L917.9 367.7L917.9 372.1Q917.9 374.1 918.6 375.6Q919.4 377.1 920.8 377.9Q922.2 378.7 924.1 378.7L924.1 378.7Q925.3 378.7 926.4 378.3Q927.4 378.0 928.2 377.3Q928.9 376.6 929.3 375.5L929.3 375.5L936.3 376.0Q935.8 378.5 934.1 380.4Q932.5 382.3 929.9 383.3Q927.3 384.3 923.9 384.3ZM948.9 383.8L941.4 383.8L941.4 356.5L948.7 356.5L948.7 361.3L949.0 361.3Q949.7 358.7 951.5 357.4Q953.3 356.1 955.6 356.1L955.6 356.1Q956.1 356.1 956.8 356.2Q957.4 356.3 957.9 356.4L957.9 356.4L957.9 363.1Q957.4 363.0 956.5 362.8Q955.5 362.7 954.7 362.7L954.7 362.7Q953.1 362.7 951.8 363.4Q950.5 364.1 949.7 365.4Q948.9 366.7 948.9 368.4L948.9 368.4L948.9 383.8Z "/></svg>